<svg width="1592" height="1025" viewBox="0 0 1592 1025" fill="none" xmlns="http://www.w3.org/2000/svg">
<path d="M235.723 836.2C223.823 843.5 208.723 845.1 195.223 840.6C207.823 843.1 220.623 841.5 231.723 835C231.723 835 232.623 834.8 235.723 836.2Z" stroke="#CAACF2" stroke-miterlimit="10"/>
<path d="M189.023 847.1C197.623 853.2 208.123 856.5 218.623 856.4C229.123 856.3 240.723 852.2 249.023 847.2C231.423 860.1 204.723 861.5 189.023 847.1Z" stroke="#CAACF2" stroke-miterlimit="10"/>
<path d="M256.023 863.5C232.723 873.8 205.123 873.4 181.023 868V868.1" stroke="#CAACF2" stroke-miterlimit="10"/>
<path d="M181.023 869.3C205.623 877.2 232.323 876.5 256.223 866.8" stroke="#CAACF2" stroke-miterlimit="10"/>
<path d="M254.224 882.1C232.924 891.5 205.524 891.9 183.924 883.3" stroke="#CAACF2" stroke-miterlimit="10"/>
<path d="M245.023 895.6C231.223 894.9 220.223 896.3 207.723 902C220.723 899.8 229.923 898.9 242.923 897.2C243.023 897.3 243.823 897.3 245.023 895.6Z" stroke="#CAACF2" stroke-miterlimit="10"/>
<path d="M279.323 868C274.523 863.8 267.923 862.6 261.823 861.9C259.923 861.7 258.023 861.6 256.123 861.6C255.823 861.6 255.623 861.8 255.623 862.1C255.623 862.7 256.323 862.6 256.823 862.6C260.623 862.7 263.923 863 267.523 863.8C274.023 865.1 284.623 869.7 279.523 876.3C277.723 878.8 274.623 880.6 271.423 881.6C263.823 884.5 255.623 885.2 247.923 886.3C235.423 887.8 222.823 888.7 210.223 889.4C198.823 889.8 187.423 890.6 176.123 890C168.223 889.5 157.623 889.1 153.123 882.7C151.123 879.6 151.923 876.9 155.123 874.6C160.123 871 166.723 868.8 173.123 867C175.423 866.4 178.423 865.7 180.323 865.5C181.123 865.6 181.223 864.6 180.523 864.5C172.123 865.8 163.623 868.4 156.223 872.7C152.723 874.8 149.523 877.9 151.723 882.3C156.423 891.8 175.123 890.9 184.323 891.3C211.323 890.6 238.623 889.7 265.223 884.6C269.523 883.5 274.023 882.2 277.623 879.5C281.923 876.3 283.723 872 279.323 868Z" fill="#9762DE"/>
<path d="M218.724 906.3C239.6 906.3 256.524 889.734 256.524 869.3C256.524 848.865 239.6 832.3 218.724 832.3C197.847 832.3 180.924 848.865 180.924 869.3C180.924 889.734 197.847 906.3 218.724 906.3Z" stroke="#CAACF2" stroke-miterlimit="10"/>
<path d="M388.124 828.9L388.824 831H390.924L389.224 832.3L389.824 834.4L388.124 833.1L386.424 834.4L387.124 832.3L385.424 831H387.524L388.124 828.9Z" stroke="#CAACF2" stroke-miterlimit="10"/>
<path d="M298.424 945.2L298.624 945.9H299.424L298.724 946.4L299.024 947.2L298.424 946.7L297.724 947.2L298.024 946.4L297.424 945.9H298.124L298.424 945.2Z" stroke="#CAACF2" stroke-miterlimit="10"/>
<path d="M248.323 747.1L249.023 749.6H251.523L249.523 751.1L250.323 753.6L248.323 752L246.323 753.6L247.023 751.1L245.023 749.6H247.523L248.323 747.1Z" stroke="#CAACF2" stroke-miterlimit="10"/>
<path d="M512.423 649L512.923 650.7H514.623L513.323 651.8L513.823 653.5L512.423 652.4L511.023 653.5L511.523 651.8L510.123 650.7H511.923L512.423 649Z" stroke="#CAACF2" stroke-miterlimit="10"/>
<path d="M898.323 652.9L898.823 654.6H900.523L899.123 655.6L899.723 657.4L898.323 656.3L896.923 657.4L897.423 655.6L896.023 654.6H897.723L898.323 652.9Z" stroke="#CAACF2" stroke-miterlimit="10"/>
<path d="M1234.62 1001.6L1235.82 1005.3H1239.62L1236.52 1007.7L1237.72 1011.4L1234.62 1009.1L1231.62 1011.4L1232.82 1007.7L1229.72 1005.3H1233.52L1234.62 1001.6Z" stroke="#CAACF2" stroke-miterlimit="10"/>
<path d="M1303.92 652.3L1306.52 660.3H1315.02L1308.22 665.2L1310.82 673.2L1303.92 668.3L1297.12 673.2L1299.72 665.2L1292.92 660.3H1301.32L1303.92 652.3Z" stroke="#CAACF2" stroke-miterlimit="10"/>
<path d="M1316.72 911.5L1317.82 915H1321.22L1318.42 917.1L1319.52 920.5L1316.72 918.4L1313.92 920.5L1315.02 917.1L1312.22 915H1315.72L1316.72 911.5Z" stroke="#CAACF2" stroke-miterlimit="10"/>
<path d="M1119.22 673.2L1120.32 677.1H1124.22L1121.12 679.4L1122.32 683.2L1119.22 680.9L1116.12 683.2L1117.32 679.4L1114.22 677.1H1118.02L1119.22 673.2Z" stroke="#CAACF2" stroke-miterlimit="10"/>
<path d="M1337.12 1001.6L1338.32 1005.3H1342.02L1339.02 1007.7L1340.12 1011.4L1337.12 1009.1L1334.02 1011.4L1335.22 1007.7L1332.22 1005.3H1335.92L1337.12 1001.6Z" stroke="#CAACF2" stroke-miterlimit="10"/>
<path d="M156.523 667.6L157.723 671.7H161.823L158.523 674.2L159.723 678.2L156.523 675.7L153.223 678.2L154.423 674.2L151.223 671.7H155.223L156.523 667.6Z" stroke="#C0CFFB" stroke-miterlimit="10"/>
<path d="M1130.42 932.8L1131.82 937.5H1136.62L1132.72 940.4L1134.22 945.2L1130.42 942.2L1126.52 945.2L1128.02 940.4L1124.22 937.5H1128.92L1130.42 932.8Z" stroke="#C0CFFB" stroke-miterlimit="10"/>
<path d="M362.423 963.4L363.423 966.7H366.723L364.023 968.7L365.023 972L362.423 970L359.723 972L360.723 968.7L358.023 966.7H361.323L362.423 963.4Z" stroke="#C0CFFB" stroke-miterlimit="10"/>
<path d="M156.523 947.2L157.723 951.2H161.823L158.523 953.7L159.723 957.8L156.523 955.3L153.223 957.8L154.423 953.7L151.223 951.2H155.223L156.523 947.2Z" stroke="#C0CFFB" stroke-miterlimit="10"/>
<path d="M1229.42 932.8L1230.62 936.8H1234.62L1231.42 939.3L1232.62 943.3L1229.42 940.8L1226.22 943.3L1227.42 939.3L1224.12 936.8H1228.22L1229.42 932.8Z" stroke="#C0CFFB" stroke-miterlimit="10"/>
<path d="M1243.32 691.7L1244.22 694.6H1247.12L1244.82 696.3L1245.72 699.2L1243.32 697.4L1241.02 699.2L1241.92 696.3L1239.62 694.6H1242.42L1243.32 691.7Z" stroke="#C0CFFB" stroke-miterlimit="10"/>
<path d="M879.824 1001.6L882.424 1010H890.824L884.024 1015.2L886.624 1023.6L879.824 1018.4L873.024 1023.6L875.624 1015.2L868.824 1010H877.224L879.824 1001.6Z" stroke="#C0CFFB" stroke-miterlimit="10"/>
<path d="M534.023 1006.5L535.523 1011.4H540.423L536.423 1014.5L537.923 1019.4L534.023 1016.3L530.023 1019.4L531.523 1014.5L527.523 1011.4H532.423L534.023 1006.5Z" stroke="#C0CFFB" stroke-miterlimit="10"/>
<path d="M335.923 649L337.523 654.3H342.823L338.523 657.5L340.123 662.8L335.923 659.5L331.623 662.8L333.223 657.5L329.023 654.3H334.223L335.923 649Z" stroke="#C0CFFB" stroke-miterlimit="10"/>
<path d="M387.9 221.9L388.6 224H390.7L389 225.3L389.6 227.4L387.9 226.1L386.2 227.4L386.9 225.3L385.2 224H387.3L387.9 221.9Z" stroke="#CAACF2" stroke-miterlimit="10"/>
<path d="M298.2 338.2L298.4 338.9H299.2L298.5 339.4L298.8 340.2L298.2 339.7L297.5 340.2L297.8 339.4L297.2 338.9H297.9L298.2 338.2Z" stroke="#CAACF2" stroke-miterlimit="10"/>
<path d="M248.1 140.1L248.8 142.6H251.3L249.3 144.1L250.1 146.6L248.1 145L246.1 146.6L246.8 144.1L244.8 142.6H247.3L248.1 140.1Z" stroke="#CAACF2" stroke-miterlimit="10"/>
<path d="M512.2 42L512.7 43.7H514.4L513.1 44.8L513.6 46.5L512.2 45.4L510.8 46.5L511.3 44.8L509.9 43.7H511.7L512.2 42Z" stroke="#CAACF2" stroke-miterlimit="10"/>
<path d="M898.101 45.9004L898.601 47.6004H900.301L898.901 48.6004L899.501 50.4004L898.101 49.3004L896.701 50.4004L897.201 48.6004L895.801 47.6004H897.501L898.101 45.9004Z" stroke="#CAACF2" stroke-miterlimit="10"/>
<path d="M1234.4 394.6L1235.6 398.3H1239.4L1236.3 400.7L1237.5 404.4L1234.4 402.1L1231.4 404.4L1232.6 400.7L1229.5 398.3H1233.3L1234.4 394.6Z" stroke="#CAACF2" stroke-miterlimit="10"/>
<path d="M1303.7 45.2998L1306.3 53.2998H1314.8L1308 58.1998L1310.6 66.1998L1303.7 61.2998L1296.9 66.1998L1299.5 58.1998L1292.7 53.2998H1301.1L1303.7 45.2998Z" stroke="#CAACF2" stroke-miterlimit="10"/>
<path d="M1316.5 304.5L1317.6 308H1321L1318.2 310.1L1319.3 313.5L1316.5 311.4L1313.7 313.5L1314.8 310.1L1312 308H1315.5L1316.5 304.5Z" stroke="#CAACF2" stroke-miterlimit="10"/>
<path d="M1119 66.2002L1120.1 70.1002H1124L1120.9 72.4002L1122.1 76.2002L1119 73.9002L1115.9 76.2002L1117.1 72.4002L1114 70.1002H1117.8L1119 66.2002Z" stroke="#CAACF2" stroke-miterlimit="10"/>
<path d="M1336.9 394.6L1338.1 398.3H1341.8L1338.8 400.7L1339.9 404.4L1336.9 402.1L1333.8 404.4L1335 400.7L1332 398.3H1335.7L1336.9 394.6Z" stroke="#CAACF2" stroke-miterlimit="10"/>
<path d="M156.3 60.5996L157.5 64.6996H161.6L158.3 67.1996L159.5 71.1996L156.3 68.6996L153 71.1996L154.2 67.1996L151 64.6996H155L156.3 60.5996Z" stroke="#C0CFFB" stroke-miterlimit="10"/>
<path d="M1130.2 325.8L1131.6 330.5H1136.4L1132.5 333.4L1134 338.2L1130.2 335.2L1126.3 338.2L1127.8 333.4L1124 330.5H1128.7L1130.2 325.8Z" stroke="#C0CFFB" stroke-miterlimit="10"/>
<path d="M362.2 356.4L363.2 359.7H366.5L363.8 361.7L364.8 365L362.2 363L359.5 365L360.5 361.7L357.8 359.7H361.1L362.2 356.4Z" stroke="#C0CFFB" stroke-miterlimit="10"/>
<path d="M156.3 340.2L157.5 344.2H161.6L158.3 346.7L159.5 350.8L156.3 348.3L153 350.8L154.2 346.7L151 344.2H155L156.3 340.2Z" stroke="#C0CFFB" stroke-miterlimit="10"/>
<path d="M1229.2 325.8L1230.4 329.8H1234.4L1231.2 332.3L1232.4 336.3L1229.2 333.8L1226 336.3L1227.2 332.3L1223.9 329.8H1228L1229.2 325.8Z" stroke="#C0CFFB" stroke-miterlimit="10"/>
<path d="M1243.1 84.7002L1244 87.6002H1246.9L1244.6 89.3002L1245.5 92.2002L1243.1 90.4002L1240.8 92.2002L1241.7 89.3002L1239.4 87.6002H1242.2L1243.1 84.7002Z" stroke="#C0CFFB" stroke-miterlimit="10"/>
<path d="M879.6 394.6L882.2 403H890.6L883.8 408.2L886.4 416.6L879.6 411.4L872.8 416.6L875.4 408.2L868.6 403H877L879.6 394.6Z" stroke="#C0CFFB" stroke-miterlimit="10"/>
<path d="M533.8 399.5L535.3 404.4H540.2L536.2 407.5L537.7 412.4L533.8 409.3L529.8 412.4L531.3 407.5L527.3 404.4H532.2L533.8 399.5Z" stroke="#C0CFFB" stroke-miterlimit="10"/>
<path d="M335.7 42L337.3 47.3H342.6L338.3 50.5L339.9 55.8L335.7 52.5L331.4 55.8L333 50.5L328.8 47.3H334L335.7 42Z" stroke="#C0CFFB" stroke-miterlimit="10"/>
<path d="M1427.25 438.485C1430.34 435.059 1434.28 432.319 1437.36 428.893C1439.07 427.009 1440.79 424.097 1441.64 421.699C1444.04 415.362 1443.18 409.196 1441.64 402.687C1440.1 396.179 1437.36 390.013 1437.36 383.333C1437.36 380.935 1437.7 378.537 1438.22 376.139C1429.14 389.156 1424 404.914 1424 421.871C1424 428.037 1424.69 434.203 1426.06 440.026C1426.23 439.512 1426.74 438.998 1427.25 438.485Z" fill="#CAACF2"/>
<path d="M1553.31 360.382C1555.2 359.526 1557.25 358.327 1558.45 357.299C1550.57 351.305 1541.5 346.68 1531.56 343.768C1531.39 344.625 1531.05 346.338 1531.39 347.879C1532.76 358.841 1543.04 365.521 1553.31 360.382Z" fill="#CAACF2"/>
<path d="M1533.62 488.327C1538.93 481.133 1548.35 478.564 1555.37 475.31C1558.11 473.768 1560 472.57 1562.05 470.514C1564.11 468.288 1566.16 463.663 1566.33 460.923C1566.33 454.243 1563.59 447.392 1564.62 440.198C1566.5 428.208 1577.98 418.617 1578.84 407.484C1579.18 404.401 1579.01 401.318 1578.66 398.235C1578.32 396.35 1577.64 393.096 1575.75 391.726C1570.61 388.129 1565.65 390.698 1562.05 396.179C1560.34 398.748 1560 401.66 1558.97 405.086C1558.11 408.169 1555.71 410.224 1553.14 411.766C1551.77 412.793 1549.72 414.677 1548.18 416.39C1547.66 417.075 1545.78 420.501 1545.44 421.528C1543.72 426.838 1543.04 433.518 1536.7 435.402C1534.13 435.745 1531.73 434.032 1529.85 432.319C1526.94 429.407 1525.91 425.125 1527.28 421.186C1529.68 412.965 1540.81 399.947 1531.56 397.378C1526.42 396.864 1519.4 398.92 1513.41 400.632C1507.41 402.516 1498.33 405.942 1494.74 398.406C1493.03 394.98 1493.54 391.041 1494.4 387.444C1495.59 382.306 1497.14 376.653 1497.48 372.029C1498.51 363.807 1497.31 354.901 1490.8 350.79C1484.98 346.68 1477.78 347.022 1470.59 348.05C1458.77 353.702 1448.66 361.923 1440.79 372.029C1434.45 389.499 1446.44 398.235 1444.21 417.418C1443.53 422.042 1441.47 426.324 1438.39 429.75C1434.62 433.861 1429.31 437.629 1426.23 441.911C1435.48 477.194 1468.19 503.4 1507.07 503.4C1514.09 503.4 1520.94 502.543 1527.62 500.831C1528.82 496.549 1530.54 492.095 1533.62 488.327Z" fill="#CAACF2"/>
<path d="M1559.65 358.327C1557.94 359.868 1556.06 361.067 1553.83 361.924C1545.09 366.377 1534.99 362.609 1531.05 353.702C1529.85 350.448 1528.82 346.68 1529.85 343.083C1522.66 341.028 1515.12 340 1507.24 340C1496.11 340 1485.49 342.227 1475.73 345.995C1480.18 345.652 1484.8 346.166 1488.92 347.879C1492.34 349.592 1495.77 352.332 1497.48 355.929C1500.9 363.979 1499.71 372.714 1497.82 380.936C1496.79 386.588 1494.4 391.897 1495.94 396.522C1498.16 403.887 1506.56 400.975 1513.92 398.749C1520.43 397.036 1537.56 390.699 1536.87 402.517C1535.67 411.595 1526.08 420.672 1528.99 427.866C1530.36 431.12 1533.45 433.347 1535.85 433.69C1537.22 433.518 1539.44 431.977 1540.64 430.264C1542.53 427.181 1542.87 422.556 1544.92 418.788C1546.46 415.363 1549.03 412.622 1552.12 410.396C1554.69 408.683 1556.06 408.169 1557.26 405.429C1557.94 403.716 1558.8 399.262 1560 396.865C1561.02 394.638 1562.91 392.583 1564.79 390.87C1568.05 387.616 1573.7 387.616 1577.29 390.356C1579.69 392.24 1580.38 395.494 1580.72 398.406C1581.23 401.66 1581.23 405.086 1580.72 408.34C1579.18 419.816 1569.24 428.209 1566.85 438.828C1565.31 445.679 1568.22 453.215 1568.39 460.923C1567.87 464.691 1566.33 468.459 1563.94 471.371C1562.05 473.426 1559.65 474.968 1557.26 476.338C1552.46 478.907 1547.83 479.935 1543.38 482.504C1536.36 486.443 1531.73 492.609 1530.02 500.66C1565.31 491.068 1591.17 459.381 1591.17 421.871C1590.83 396.179 1578.67 373.228 1559.65 358.327Z" fill="#CAACF2"/>
<path d="M53.8975 91C79.0264 91 99.3975 70.629 99.3975 45.5C99.3975 20.371 79.0264 0 53.8975 0C28.7685 0 8.39746 20.371 8.39746 45.5C8.39746 70.629 28.7685 91 53.8975 91Z" fill="#C0CFFB"/>
<path d="M56.778 35.7451C63.0693 35.7451 68.1694 30.645 68.1694 24.3538C68.1694 18.0625 63.0693 12.9624 56.778 12.9624C50.4867 12.9624 45.3867 18.0625 45.3867 24.3538C45.3867 30.645 50.4867 35.7451 56.778 35.7451Z" stroke="white" stroke-miterlimit="10"/>
<path d="M90.6255 41.5063C91.9995 41.5063 93.1132 40.3925 93.1132 39.0185C93.1132 37.6446 91.9995 36.5308 90.6255 36.5308C89.2515 36.5308 88.1377 37.6446 88.1377 39.0185C88.1377 40.3925 89.2515 41.5063 90.6255 41.5063Z" stroke="white" stroke-miterlimit="10"/>
<path d="M30.329 41.5064C33.0408 41.5064 35.2391 39.5132 35.2391 37.0546C35.2391 34.5959 33.0408 32.6028 30.329 32.6028C27.6173 32.6028 25.4189 34.5959 25.4189 37.0546C25.4189 39.5132 27.6173 41.5064 30.329 41.5064Z" stroke="white" stroke-miterlimit="10"/>
<path d="M70.0028 85.3044C80.0543 85.3044 88.2027 77.4491 88.2027 67.7591C88.2027 58.0691 80.0543 50.2137 70.0028 50.2137C59.9512 50.2137 51.8027 58.0691 51.8027 67.7591C51.8027 77.4491 59.9512 85.3044 70.0028 85.3044Z" stroke="white" stroke-miterlimit="10"/>
<path d="M14.29 84.3876C21.6298 84.3876 27.5798 78.1444 27.5798 70.443C27.5798 62.7416 21.6298 56.4984 14.29 56.4984C6.95014 56.4984 1 62.7416 1 70.443C1 78.1444 6.95014 84.3876 14.29 84.3876Z" stroke="white" stroke-miterlimit="10"/>
</svg>
