<svg width="1573" height="744" viewBox="0 0 1573 744" fill="none" xmlns="http://www.w3.org/2000/svg">
<path d="M1566.8 145L1564 155.9L1573 162.5L1561.8 163.1L1558.3 173.8L1554.2 163.3H1543L1551.7 156.2L1548.3 145.5L1557.7 151.6L1566.8 145Z" fill="#CAACF2"/>
<path d="M1421.01 80L1419.24 91.2792L1429 97.0649L1417.83 98.8571L1415.4 110L1410.27 99.8312L1399 100.942L1407.01 92.8766L1402.47 82.3961L1412.54 87.5974L1421.01 80Z" fill="#BBD0FF"/>
<path d="M453.948 710L451.936 722.783L463 729.34L450.34 731.371L447.585 744L441.769 732.475L429 733.734L438.074 724.594L432.936 712.716L444.349 718.61L453.948 710Z" fill="#BBD0FF"/>
<path d="M279.214 13L277.262 25.4071L288 31.7714L275.713 33.7429L273.039 46L267.394 34.8143L255 36.0357L263.807 27.1643L258.82 15.6357L269.898 21.3571L279.214 13Z" fill="#BBD0FF"/>
<path d="M976.279 0L974.563 10.9032L984 16.4961L973.202 18.2286L970.852 29L965.891 19.1701L955 20.2435L962.74 12.4474L958.357 2.31623L968.092 7.34416L976.279 0Z" fill="#FFD488"/>
<path d="M29.3505 387L26.9839 402.039L40 409.753L25.1061 412.143L21.865 427L15.0225 413.442L0 414.922L10.6752 404.169L4.63023 390.195L18.0579 397.13L29.3505 387Z" fill="#FFD488"/>
</svg>
