<svg width="685" height="473" viewBox="0 0 685 473" fill="none" xmlns="http://www.w3.org/2000/svg">
<path d="M523.361 132.452L517.654 128.037L511.441 131.731L513.885 124.926L508.431 120.181L515.667 120.418L518.515 113.76L520.544 120.71L527.712 121.358L521.757 125.411L523.361 132.452Z" fill="url(#paint0_linear_401_43083)"/>
<path d="M403.66 237.655L399.574 231.714L392.545 233.352L396.948 227.612L393.221 221.414L400.027 223.857L404.774 218.403L404.568 225.625L411.214 228.438L404.263 230.467L403.66 237.655Z" fill="url(#paint1_linear_401_43083)"/>
<path d="M223.672 310.43L222.751 303.271L215.757 301.517L222.287 298.427L221.77 291.223L226.732 296.47L233.453 293.765L229.976 300.097L234.639 305.655L227.532 304.291L223.672 310.43Z" fill="url(#paint2_linear_401_43083)"/>
<path d="M459.856 259.193L451.493 244.892L435.124 247.472L446.106 235.091L438.598 220.334L453.789 226.974L465.498 215.264L463.868 231.765L478.645 239.298L462.466 242.84L459.856 259.193Z" fill="url(#paint3_linear_401_43083)"/>
<path d="M275.271 371.951L271.156 360.033L258.546 359.509L268.62 351.902L265.214 339.741L275.579 346.991L286.082 339.982L282.384 352.045L292.296 359.897L279.671 360.108L275.271 371.951Z" fill="url(#paint4_linear_401_43083)"/>
<path d="M330.386 268.962L327.951 260.6L319.272 259.821L326.469 254.93L324.524 246.451L331.434 251.77L338.915 247.304L335.95 255.506L342.522 261.228L333.815 260.96L330.386 268.962Z" fill="url(#paint5_linear_401_43083)"/>
<path d="M128.964 404.985L119.842 389.449L102.054 392.324L114.013 378.826L105.8 362.775L122.321 369.962L135.034 357.201L133.328 375.153L149.382 383.293L131.777 387.208L128.964 404.985Z" fill="url(#paint6_linear_401_43083)"/>
<path d="M104.962 440.961L95.7299 433.953L85.8523 440.022L89.6466 429.073L80.814 421.522L92.4236 421.752L96.8666 411.082L100.222 422.15L111.77 423.095L102.262 429.709L104.962 440.961Z" fill="url(#paint7_linear_401_43083)"/>
<path d="M384.448 345.974L376.386 337.657L365.671 342.101L371.12 331.838L363.563 323.052L374.989 325.044L381.034 315.12L382.652 326.647L393.957 329.301L383.505 334.409L384.448 345.974Z" fill="url(#paint8_linear_401_43083)"/>
<path d="M272.464 294.252L263.702 285.138L252.038 289.997L257.98 278.848L249.803 269.272L262.202 271.491L268.799 260.735L270.527 273.216L282.799 276.177L271.465 281.674L272.464 294.252Z" fill="url(#paint9_linear_401_43083)"/>
<path d="M161.451 330.018L160.652 326.65L157.28 326.183L160.187 324.415L159.6 321.001L162.225 323.261L165.265 321.633L163.917 324.816L166.369 327.221L162.95 326.927L161.451 330.018Z" fill="url(#paint10_linear_401_43083)"/>
<path d="M196.226 273.298L195.827 271.614L194.118 271.371L195.605 270.473L195.318 268.783L196.613 269.919L198.14 269.122L197.46 270.697L198.702 271.893L196.986 271.729L196.226 273.298Z" fill="url(#paint11_linear_401_43083)"/>
<path d="M108.826 344.568L107.707 339.715L102.818 339.006L107.026 336.453L106.211 331.594L109.953 334.831L114.333 332.517L112.419 337.077L115.935 340.519L111.019 340.128L108.826 344.568Z" fill="url(#paint12_linear_401_43083)"/>
<path d="M75.1576 331.711L74.4568 328.687L71.403 328.249L74.0251 326.632L73.5034 323.576L75.8437 325.603L78.6111 324.16L77.4038 327.019L79.6045 329.178L76.5503 328.932L75.1576 331.711Z" fill="url(#paint13_linear_401_43083)"/>
<path d="M76.9311 387.746L76.3941 385.425L74.0359 385.094L76.0804 383.86L75.6429 381.5L77.4609 383.082L79.5449 381.948L78.6508 384.146L80.3493 385.813L77.9642 385.608L76.9311 387.746Z" fill="url(#paint14_linear_401_43083)"/>
<path d="M50.9938 358.767L50.5485 356.871L48.634 356.594L50.2736 355.598L49.9409 353.696L51.402 354.958L53.1142 354.049L52.367 355.842L53.7881 357.198L51.8468 357.047L50.9938 358.767Z" fill="url(#paint15_linear_401_43083)"/>
<path d="M485.773 158.963L484.987 155.628L481.602 155.128L484.542 153.347L483.968 149.966L486.547 152.206L489.6 150.611L488.239 153.761L490.724 156.153L487.305 155.859L485.773 158.963Z" fill="url(#paint16_linear_401_43083)"/>
<path d="M407.672 258.405L406.919 255.057L403.501 254.571L406.441 252.79L405.854 249.376L408.446 251.649L411.499 250.053L410.171 253.191L412.623 255.596L409.205 255.302L407.672 258.405Z" fill="url(#paint17_linear_401_43083)"/>
<path d="M360.97 299.973L358.435 289.04L347.313 287.427L356.912 281.621L355.014 270.551L363.496 277.895L373.444 272.68L369.095 283.005L377.118 290.839L365.955 289.895L360.97 299.973Z" fill="url(#paint18_linear_401_43083)"/>
<path d="M215.828 357.421L208.41 348.695L197.598 352.41L203.596 342.659L196.709 333.53L207.835 336.217L214.408 326.851L215.298 338.284L226.223 341.626L215.628 345.984L215.828 357.421Z" fill="url(#paint19_linear_401_43083)"/>
<path d="M364.646 238.128L363.847 234.76L360.462 234.261L363.403 232.48L362.829 229.099L365.421 231.372L368.46 229.743L367.113 232.927L369.598 235.319L366.179 235.025L364.646 238.128Z" fill="url(#paint20_linear_401_43083)"/>
<path d="M495.45 271.095L494.664 267.76L491.279 267.261L494.219 265.479L493.645 262.098L496.224 264.338L499.277 262.743L497.962 265.913L500.414 268.318L496.996 268.024L495.45 271.095Z" fill="url(#paint21_linear_401_43083)"/>
<path d="M530.206 96.6825L529.42 93.3475L526.002 92.8613L528.942 91.0801L528.368 87.6993L530.98 89.9259L533.999 88.3436L532.685 91.5141L535.137 93.9192L531.718 93.6252L530.206 96.6825Z" fill="url(#paint22_linear_401_43083)"/>
<path d="M553.565 111.136L552.779 107.801L549.394 107.302L552.302 105.534L551.728 102.153L554.339 104.38L557.392 102.784L556.045 105.968L558.497 108.373L555.078 108.079L553.565 111.136Z" fill="url(#paint23_linear_401_43083)"/>
<path d="M558.988 86.4882L558.359 83.7433L555.557 83.3582L557.973 81.9002L557.491 79.1359L559.639 80.9704L562.108 79.6451L561.021 82.2264L563.03 84.193L560.247 83.9537L558.988 86.4882Z" fill="url(#paint24_linear_401_43083)"/>
<path d="M572.803 29.6797L572.017 26.3447L568.599 25.8585L571.539 24.0773L570.966 20.6965L573.577 22.9231L576.597 21.3408L575.282 24.5113L577.734 26.9164L574.316 26.6224L572.803 29.6797Z" fill="url(#paint25_linear_401_43083)"/>
<path d="M590.642 20.2583L589.856 16.9233L586.471 16.424L589.411 14.6427L588.838 11.2619L591.416 13.5017L594.469 11.9063L593.154 15.0767L595.593 17.4487L592.188 17.1879L590.642 20.2583Z" fill="url(#paint26_linear_401_43083)"/>
<path d="M463.163 191.967L462.076 187.293L457.346 186.598L461.435 184.13L460.64 179.417L464.263 182.547L468.49 180.332L466.623 184.72L470.066 188.076L465.296 187.666L463.163 191.967Z" fill="url(#paint27_linear_401_43083)"/>
<path d="M203.781 378.825L202.982 375.457L199.597 374.957L202.537 373.176L201.93 369.808L204.555 372.068L207.595 370.44L206.247 373.623L208.732 376.015L205.281 375.734L203.781 378.825Z" fill="url(#paint28_linear_401_43083)"/>
<path d="M173.591 399.597L169.872 395.353L164.565 397.267L167.435 392.405L163.988 387.976L169.505 389.203L172.645 384.54L173.187 390.161L178.577 391.745L173.421 393.945L173.591 399.597Z" fill="url(#paint29_linear_401_43083)"/>
<path d="M109.118 466.721L108.538 463.227L105.081 462.45L108.246 460.848L107.878 457.309L110.403 459.8L113.681 458.384L112.062 461.56L114.413 464.197L110.903 463.671L109.118 466.721Z" fill="url(#paint30_linear_401_43083)"/>
<path d="M545.293 150.082L544.541 146.734L541.122 146.248L544.063 144.467L543.489 141.086L546.067 143.326L549.12 141.73L547.806 144.901L550.258 147.306L546.839 147.012L545.293 150.082Z" fill="url(#paint31_linear_401_43083)"/>
<path d="M511.184 176.748L510.562 174.116L507.872 173.724L510.189 172.306L509.746 169.641L511.789 171.402L514.204 170.137L513.124 172.638L515.073 174.552L512.37 174.319L511.184 176.748Z" fill="url(#paint32_linear_401_43083)"/>
<path d="M554.678 75.5305L548.389 65.7801L537.011 68.0692L544.339 59.0572L538.641 48.9572L549.491 53.1736L557.341 44.607L556.679 56.1943L567.249 61.0593L556.021 64.0179L554.678 75.5305Z" fill="url(#paint33_linear_401_43083)"/>
<path d="M520.08 230.993L519.138 219.428L508 216.132L518.689 211.621L518.376 199.998L525.979 208.804L536.918 204.924L530.92 214.867L537.992 224.076L526.687 221.422L520.08 230.993Z" fill="url(#paint34_linear_401_43083)"/>
<path d="M331.323 325.597L329.804 323.705L327.47 324.401L328.814 322.37L327.448 320.379L329.779 321.028L331.242 319.103L331.355 321.516L333.639 322.337L331.357 323.166L331.323 325.597Z" fill="url(#paint35_linear_401_43083)"/>
<path d="M243.66 329.062L243.254 327.266L241.465 327.016L243.019 326.092L242.692 324.302L244.081 325.479L245.673 324.655L244.986 326.31L246.255 327.572L244.473 327.435L243.66 329.062Z" fill="url(#paint36_linear_401_43083)"/>
<path d="M414.042 209.926L413.478 207.539L411.074 207.188L413.185 205.928L412.767 203.522L414.598 205.137L416.749 203.976L415.801 206.233L417.546 207.921L415.128 207.729L414.042 209.926Z" fill="url(#paint37_linear_401_43083)"/>
<path d="M485.371 206.033L483.063 206.796L481.511 204.916L481.544 207.322L479.255 208.23L481.579 208.959L481.738 211.391L483.142 209.413L485.506 210.049L484.073 208.084L485.371 206.033Z" fill="url(#paint38_linear_401_43083)"/>
<path d="M532.898 179.8L534.196 177.75L532.764 175.785L535.115 176.387L536.565 174.43L536.691 176.875L539.015 177.604L536.759 178.499L536.759 180.917L535.207 179.038L532.898 179.8Z" fill="url(#paint39_linear_401_43083)"/>
<path d="M498.538 237.277L499.743 235.378L498.423 233.599L500.601 234.155L501.912 232.329L502.025 234.549L504.177 235.231L502.087 236.06L502.101 238.32L500.681 236.58L498.538 237.277Z" fill="url(#paint40_linear_401_43083)"/>
<path d="M321.44 372.093L320.877 369.706L318.472 369.355L320.55 368.108L320.132 365.702L321.997 367.303L324.16 366.176L323.2 368.4L324.945 370.088L322.526 369.896L321.44 372.093Z" fill="url(#paint41_linear_401_43083)"/>
<path d="M222.177 275.898L221.613 273.511L219.209 273.16L221.286 271.913L220.869 269.507L222.7 271.122L224.85 269.961L223.903 272.218L225.648 273.906L223.23 273.714L222.177 275.898Z" fill="url(#paint42_linear_401_43083)"/>
<path d="M465.498 308.625L464.948 306.271L462.544 305.92L464.608 304.64L464.204 302.267L466.055 303.836L468.185 302.722L467.258 304.932L469.016 306.653L466.585 306.428L465.498 308.625Z" fill="url(#paint43_linear_401_43083)"/>
<path d="M178.361 359.277L177.811 356.923L175.407 356.572L177.484 355.325L177.067 352.919L178.885 354.501L181.048 353.373L180.134 355.617L181.846 357.318L179.414 357.093L178.361 359.277Z" fill="url(#paint44_linear_401_43083)"/>
<path d="M420.67 300.35L418.892 298.675L416.716 299.769L417.709 297.532L416.018 295.785L418.429 296.057L419.575 293.913L420.059 296.293L422.456 296.723L420.319 297.917L420.67 300.35Z" fill="url(#paint45_linear_401_43083)"/>
<path d="M279.302 308.775L280.114 307.531L279.197 306.283L280.687 306.652L281.558 305.461L281.653 306.959L283.103 307.42L281.677 307.986L281.693 309.477L280.735 308.322L279.302 308.775Z" fill="url(#paint46_linear_401_43083)"/>
<path d="M239.978 371.254L240.823 369.997L239.919 368.783L241.375 369.164L242.267 367.927L242.362 369.425L243.812 369.886L242.386 370.452L242.402 371.943L241.444 370.788L239.978 371.254Z" fill="url(#paint47_linear_401_43083)"/>
<path d="M150.5 419.779L151.332 418.489L150.428 417.274L151.885 417.655L152.776 416.419L152.871 417.916L154.321 418.377L152.895 418.943L152.924 420.468L151.953 419.279L150.5 419.779Z" fill="url(#paint48_linear_401_43083)"/>
<path d="M119.933 311.023L120.732 309.747L119.86 308.519L121.317 308.9L122.209 307.663L122.271 309.174L123.721 309.635L122.327 310.188L122.323 311.726L121.352 310.537L119.933 311.023Z" fill="url(#paint49_linear_401_43083)"/>
<path d="M446.292 210.985L447.09 209.709L446.186 208.494L447.676 208.862L448.567 207.625L448.629 209.136L450.079 209.597L448.686 210.15L448.682 211.688L447.711 210.499L446.292 210.985Z" fill="url(#paint50_linear_401_43083)"/>
<path d="M408.965 334.9L409.797 333.61L408.892 332.395L410.349 332.777L411.24 331.54L411.349 333.071L412.799 333.532L411.373 334.098L411.388 335.589L410.431 334.434L408.965 334.9Z" fill="url(#paint51_linear_401_43083)"/>
<path d="M580.296 59.106L581.095 57.8293L580.223 56.6012L581.68 56.9827L582.572 55.746L582.68 57.2769L584.097 57.7511L582.704 58.304L582.686 59.8081L581.729 58.6526L580.296 59.106Z" fill="url(#paint52_linear_401_43083)"/>
<path d="M149.835 310.52L145.11 305.677L138.906 308.331L142.031 302.369L137.618 297.248L144.249 298.379L147.757 292.61L148.719 299.292L155.302 300.787L149.244 303.806L149.835 310.52Z" fill="url(#paint53_linear_401_43083)"/>
<path d="M133.809 445.444L131.089 441.686L126.587 442.82L129.327 439.084L126.833 435.122L131.256 436.591L134.241 432.988L134.209 437.646L138.578 439.367L134.114 440.793L133.809 445.444Z" fill="url(#paint54_linear_401_43083)"/>
<path d="M77.4984 359.957L72.7867 355.148L66.57 357.768L69.7277 351.793L65.2819 346.686L71.9586 347.837L75.4206 342.048L76.3829 348.73L82.9791 350.258L76.9072 353.244L77.4984 359.957Z" fill="url(#paint55_linear_401_43083)"/>
<path d="M312.416 306.882L307.704 302.072L301.487 304.692L304.612 298.731L300.199 293.61L306.843 294.774L310.338 288.972L311.3 295.654L317.863 297.195L311.824 300.168L312.416 306.882Z" fill="url(#paint56_linear_401_43083)"/>
<path d="M453.288 295.659L452.372 288.997L445.796 287.423L451.847 284.483L451.323 277.743L456.014 282.599L462.244 280.012L459.073 285.954L463.453 291.087L456.809 289.923L453.288 295.659Z" fill="url(#paint57_linear_401_43083)"/>
<path d="M427.656 331.206L431.166 327.087L428.615 322.303L433.613 324.351L437.361 320.444L436.962 325.824L441.853 328.182L436.567 329.474L435.863 334.859L432.993 330.239L427.656 331.206Z" fill="url(#paint58_linear_401_43083)"/>
<path d="M346.581 362.883L350.078 358.731L347.494 353.96L352.538 356.027L356.273 352.088L355.887 357.501L360.778 359.859L355.493 361.15L354.789 366.536L351.919 361.916L346.581 362.883Z" fill="url(#paint59_linear_401_43083)"/>
<path d="M558.118 34.279L558.917 33.0023L558.045 31.7741L559.502 32.1557L560.394 30.919L560.489 32.4167L561.906 32.8909L560.513 33.4438L560.508 34.9811L559.538 33.7924L558.118 34.279Z" fill="url(#paint60_linear_401_43083)"/>
<path d="M575.963 8.23276L577.624 6.99808L577.072 5.02867L578.766 6.19936L580.465 5.06417L579.863 7.03052L581.497 8.34017L579.429 8.35459L578.701 10.2941L578.037 8.33102L575.963 8.23276Z" fill="url(#paint61_linear_401_43083)"/>
<path d="M583.307 46.0872L584.968 44.8526L584.45 42.87L586.11 44.0538L587.856 42.9386L587.207 44.885L588.841 46.1946L586.773 46.2091L586.045 48.1486L585.381 46.1855L583.307 46.0872Z" fill="url(#paint62_linear_401_43083)"/>
<path d="M537.808 84.1063L539.435 82.8848L538.917 80.9022L540.577 82.086L542.323 80.9709L541.721 82.9372L543.308 84.2269L541.241 84.2413L540.513 86.1808L539.849 84.2177L537.808 84.1063Z" fill="url(#paint63_linear_401_43083)"/>
<path d="M533.561 124.872L535.188 123.65L534.669 121.668L536.33 122.852L538.062 121.703L537.427 123.683L539.047 124.959L536.993 125.007L536.252 126.913L535.601 124.983L533.561 124.872Z" fill="url(#paint64_linear_401_43083)"/>
<path d="M508.525 105.325L510.185 104.09L509.621 102.088L511.327 103.292L513.027 102.156L512.425 104.123L514.012 105.412L511.957 105.46L511.25 107.353L510.599 105.423L508.525 105.325Z" fill="url(#paint65_linear_401_43083)"/>
<path d="M509.169 145.646L509.655 144.839L509.094 144.102L510.021 144.31L510.567 143.556L510.597 144.504L511.517 144.791L510.622 145.147L510.639 146.061L510.045 145.337L509.169 145.646Z" fill="url(#paint66_linear_401_43083)"/>
<path d="M531.064 109.97L531.596 109.183L531.022 108.413L531.929 108.667L532.474 107.913L532.538 108.847L533.412 109.115L532.549 109.457L532.58 110.405L531.986 109.681L531.064 109.97Z" fill="url(#paint67_linear_401_43083)"/>
<path d="M498.195 205.742L498.694 204.969L498.166 204.218L499.06 204.439L499.605 203.685L499.669 204.62L500.556 204.92L499.694 205.263L499.678 206.19L499.084 205.467L498.195 205.742Z" fill="url(#paint68_linear_401_43083)"/>
<path d="M477.963 256.153L478.449 255.346L477.888 254.609L478.815 254.817L479.36 254.063L479.391 255.011L480.311 255.298L479.415 255.653L479.433 256.568L478.838 255.844L477.963 256.153Z" fill="url(#paint69_linear_401_43083)"/>
<path d="M442.417 193.29L442.917 192.516L442.388 191.766L443.282 191.987L443.828 191.233L443.892 192.168L444.779 192.468L443.916 192.81L443.901 193.738L443.306 193.014L442.417 193.29Z" fill="url(#paint70_linear_401_43083)"/>
<path d="M484.9 187.141L485.419 186.321L484.857 185.584L485.751 185.805L486.297 185.051L486.361 185.985L487.248 186.286L486.385 186.628L486.403 187.543L485.775 186.832L484.9 187.141Z" fill="url(#paint71_linear_401_43083)"/>
<path d="M369.276 260.63L369.775 259.856L369.234 259.072L370.141 259.326L370.687 258.573L370.737 259.474L371.624 259.774L370.762 260.117L370.759 261.077L370.165 260.354L369.276 260.63Z" fill="url(#paint72_linear_401_43083)"/>
<path d="M396.636 314.188L397.155 313.367L396.594 312.63L397.488 312.852L398.034 312.098L398.097 313.032L399.018 313.319L398.122 313.675L398.139 314.589L397.545 313.865L396.636 314.188Z" fill="url(#paint73_linear_401_43083)"/>
<path d="M400.573 280.571L401.331 279.387L400.533 278.245L401.864 278.6L402.715 277.456L402.784 278.887L404.141 279.308L402.815 279.835L402.824 281.213L401.939 280.144L400.573 280.571Z" fill="url(#paint74_linear_401_43083)"/>
<path d="M294.577 320.948L295.076 320.174L294.502 319.404L295.442 319.645L295.987 318.891L296.051 319.825L296.925 320.093L296.063 320.435L296.06 321.396L295.466 320.672L294.577 320.948Z" fill="url(#paint75_linear_401_43083)"/>
<path d="M350.874 313.04L351.56 311.961L350.814 310.952L352.019 311.28L352.764 310.255L352.847 311.527L354.032 311.902L352.871 312.362L352.874 313.628L352.061 312.645L350.874 313.04Z" fill="url(#paint76_linear_401_43083)"/>
<path d="M254.628 312.003L255.147 311.183L254.586 310.446L255.48 310.667L256.026 309.913L256.089 310.847L256.977 311.148L256.114 311.49L256.098 312.418L255.504 311.694L254.628 312.003Z" fill="url(#paint77_linear_401_43083)"/>
<path d="M134.562 350.401L135.048 349.594L134.52 348.844L135.414 349.065L135.96 348.311L136.023 349.245L136.91 349.546L136.048 349.888L136.032 350.816L135.438 350.092L134.562 350.401Z" fill="url(#paint78_linear_401_43083)"/>
<path d="M175.841 333.674L176.34 332.9L175.779 332.163L176.706 332.371L177.252 331.617L177.315 332.551L178.202 332.852L177.34 333.194L177.324 334.121L176.73 333.398L175.841 333.674Z" fill="url(#paint79_linear_401_43083)"/>
<path d="M157.831 359.401L158.33 358.627L157.789 357.844L158.696 358.098L159.241 357.344L159.305 358.279L160.179 358.546L159.317 358.889L159.314 359.849L158.719 359.125L157.831 359.401Z" fill="url(#paint80_linear_401_43083)"/>
<path d="M292.375 268.768L291.812 266.381L289.407 266.03L291.485 264.784L291.067 262.377L292.932 263.979L295.062 262.865L294.135 265.075L295.88 266.763L293.461 266.571L292.375 268.768Z" fill="url(#paint81_linear_401_43083)"/>
<path d="M381.577 301.008L381.06 298.642L378.622 298.304L380.719 297.011L380.315 294.637L382.133 296.219L384.297 295.092L383.336 297.316L385.094 299.036L382.663 298.811L381.577 301.008Z" fill="url(#paint82_linear_401_43083)"/>
<path d="M314.338 345.006L313.775 342.619L311.383 342.302L313.448 341.022L313.043 338.648L314.861 340.23L317.025 339.103L316.065 341.327L317.823 343.048L315.391 342.823L314.338 345.006Z" fill="url(#paint83_linear_401_43083)"/>
<path d="M190.543 315.478L190.013 313.078L187.575 312.74L189.686 311.48L189.269 309.073L191.1 310.688L193.263 309.561L192.303 311.785L194.048 313.473L191.629 313.281L190.543 315.478Z" fill="url(#paint84_linear_401_43083)"/>
<path d="M169.134 281.171L168.584 278.817L166.179 278.466L168.257 277.219L167.839 274.813L169.69 276.382L171.854 275.254L170.907 277.511L172.651 279.199L170.233 279.007L169.134 281.171Z" fill="url(#paint85_linear_401_43083)"/>
<path d="M60.3583 317.737L60.8907 316.95L60.3163 316.18L61.2234 316.434L61.7689 315.68L61.8326 316.614L62.7398 316.869L61.8442 317.224L61.8747 318.172L61.2803 317.448L60.3583 317.737Z" fill="url(#paint86_linear_401_43083)"/>
<path d="M95.9735 319.342L96.4727 318.568L95.9315 317.785L96.8386 318.039L97.3841 317.285L97.4478 318.219L98.3218 318.487L97.4594 318.829L97.4567 319.79L96.8623 319.066L95.9735 319.342Z" fill="url(#paint87_linear_401_43083)"/>
<path d="M90.3202 365.08L90.8193 364.306L90.245 363.536L91.1853 363.777L91.7308 363.023L91.7813 363.924L92.6685 364.225L91.8061 364.567L91.7902 365.495L91.209 364.804L90.3202 365.08Z" fill="url(#paint88_linear_401_43083)"/>
<path d="M82.9276 402.372L83.4268 401.598L82.8855 400.815L83.7927 401.069L84.3251 400.282L84.3887 401.216L85.2759 401.517L84.4135 401.859L84.3977 402.787L83.8032 402.063L82.9276 402.372Z" fill="url(#paint89_linear_401_43083)"/>
<path d="M80.0526 306.121L79.4893 303.734L77.0847 303.383L79.1623 302.136L78.7449 299.73L80.5761 301.345L82.7264 300.184L81.7791 302.441L83.5239 304.129L81.1057 303.937L80.0526 306.121Z" fill="url(#paint90_linear_401_43083)"/>
<path d="M105.684 287.503L106.578 287.724L107.137 287.003L107.187 287.904L108.074 288.205L107.179 288.56L107.163 289.488L106.602 288.751L105.68 289.04L106.212 288.253L105.684 287.503Z" fill="url(#paint91_linear_401_43083)"/>
<path d="M95.7759 302.107L96.6832 302.361L97.2618 301.594L97.2923 302.542L98.1795 302.842L97.3039 303.151L97.3012 304.112L96.7068 303.388L95.818 303.664L96.3172 302.89L95.7759 302.107Z" fill="url(#paint92_linear_401_43083)"/>
<path d="M131.471 281.76L133.562 280.546L133.224 278.147L135.022 279.775L137.186 278.648L136.192 280.885L137.917 282.619L135.506 282.347L134.373 284.524L133.889 282.144L131.471 281.76Z" fill="url(#paint93_linear_401_43083)"/>
<path d="M342.936 331.737L343.436 330.963L342.908 330.213L343.802 330.434L344.347 329.68L344.411 330.615L345.298 330.915L344.435 331.257L344.42 332.185L343.825 331.461L342.936 331.737Z" fill="url(#paint94_linear_401_43083)"/>
<path d="M50.4647 336.827L49.9145 334.473L47.5099 334.122L49.5744 332.842L49.1701 330.469L51.0213 332.038L53.1516 330.924L52.2244 333.134L53.9492 334.868L51.5178 334.643L50.4647 336.827Z" fill="url(#paint95_linear_401_43083)"/>
<path d="M62.1972 383.804L62.6831 382.997L62.1219 382.26L63.0159 382.481L63.5946 381.714L63.6251 382.661L64.5454 382.949L63.6498 383.304L63.6671 384.219L63.0728 383.495L62.1972 383.804Z" fill="url(#paint96_linear_401_43083)"/>
<path d="M526.356 161.283L526.855 160.509L526.281 159.739L527.221 159.98L527.766 159.226L527.83 160.161L528.704 160.428L527.842 160.77L527.839 161.731L527.245 161.007L526.356 161.283Z" fill="url(#paint97_linear_401_43083)"/>
<path d="M182.72 295.088L183.206 294.281L182.645 293.544L183.539 293.765L184.118 292.998L184.148 293.946L185.068 294.233L184.173 294.589L184.19 295.503L183.596 294.779L182.72 295.088Z" fill="url(#paint98_linear_401_43083)"/>
<path d="M124.292 417.012L124.791 416.239L124.25 415.455L125.157 415.709L125.703 414.956L125.766 415.89L126.64 416.157L125.778 416.5L125.775 417.46L125.181 416.737L124.292 417.012Z" fill="url(#paint99_linear_401_43083)"/>
<path d="M90.8996 452.837L91.3988 452.064L90.8575 451.28L91.7647 451.534L92.3302 450.734L92.3738 451.715L93.2942 452.002L92.3854 452.325L92.4159 453.272L91.7884 452.562L90.8996 452.837Z" fill="url(#paint100_linear_401_43083)"/>
<path d="M240.94 342.235L241.472 341.448L240.898 340.677L241.805 340.932L242.35 340.178L242.414 341.112L243.288 341.379L242.425 341.722L242.456 342.669L241.862 341.945L240.94 342.235Z" fill="url(#paint101_linear_401_43083)"/>
<path d="M433.605 267.346L434.124 266.526L433.563 265.789L434.47 266.043L435.002 265.256L435.066 266.191L435.953 266.491L435.09 266.833L435.108 267.748L434.48 267.037L433.605 267.346Z" fill="url(#paint102_linear_401_43083)"/>
<defs>
<linearGradient id="paint0_linear_401_43083" x1="520.834" y1="105.471" x2="502.455" y2="115.151" gradientUnits="userSpaceOnUse">
<stop stop-color="#CAACF2"/>
<stop offset="1" stop-color="#BBD0FF"/>
</linearGradient>
<linearGradient id="paint1_linear_401_43083" x1="403.358" y1="210.105" x2="384.8" y2="219.936" gradientUnits="userSpaceOnUse">
<stop stop-color="#CAACF2"/>
<stop offset="1" stop-color="#BBD0FF"/>
</linearGradient>
<linearGradient id="paint2_linear_401_43083" x1="228.04" y1="281.599" x2="209.381" y2="291.558" gradientUnits="userSpaceOnUse">
<stop stop-color="#CAACF2"/>
<stop offset="1" stop-color="#BBD0FF"/>
</linearGradient>
<linearGradient id="paint3_linear_401_43083" x1="459.762" y1="195.03" x2="417.604" y2="217.232" gradientUnits="userSpaceOnUse">
<stop stop-color="#CAACF2"/>
<stop offset="1" stop-color="#BBD0FF"/>
</linearGradient>
<linearGradient id="paint4_linear_401_43083" x1="277.866" y1="321.781" x2="246.027" y2="338.487" gradientUnits="userSpaceOnUse">
<stop stop-color="#CAACF2"/>
<stop offset="1" stop-color="#BBD0FF"/>
</linearGradient>
<linearGradient id="paint5_linear_401_43083" x1="333.023" y1="234.2" x2="310.839" y2="245.889" gradientUnits="userSpaceOnUse">
<stop stop-color="#CAACF2"/>
<stop offset="1" stop-color="#BBD0FF"/>
</linearGradient>
<linearGradient id="paint6_linear_401_43083" x1="128.88" y1="335.243" x2="82.9897" y2="359.421" gradientUnits="userSpaceOnUse">
<stop stop-color="#CAACF2"/>
<stop offset="1" stop-color="#BBD0FF"/>
</linearGradient>
<linearGradient id="paint7_linear_401_43083" x1="100.775" y1="397.703" x2="71.3497" y2="413.189" gradientUnits="userSpaceOnUse">
<stop stop-color="#CAACF2"/>
<stop offset="1" stop-color="#BBD0FF"/>
</linearGradient>
<linearGradient id="paint8_linear_401_43083" x1="382.578" y1="302.995" x2="352.597" y2="318.978" gradientUnits="userSpaceOnUse">
<stop stop-color="#CAACF2"/>
<stop offset="1" stop-color="#BBD0FF"/>
</linearGradient>
<linearGradient id="paint9_linear_401_43083" x1="270.432" y1="247.586" x2="237.865" y2="264.95" gradientUnits="userSpaceOnUse">
<stop stop-color="#CAACF2"/>
<stop offset="1" stop-color="#BBD0FF"/>
</linearGradient>
<linearGradient id="paint10_linear_401_43083" x1="162.845" y1="316.229" x2="154.028" y2="320.89" gradientUnits="userSpaceOnUse">
<stop stop-color="#CAACF2"/>
<stop offset="1" stop-color="#BBD0FF"/>
</linearGradient>
<linearGradient id="paint11_linear_401_43083" x1="196.923" y1="266.403" x2="192.498" y2="268.745" gradientUnits="userSpaceOnUse">
<stop stop-color="#CAACF2"/>
<stop offset="1" stop-color="#BBD0FF"/>
</linearGradient>
<linearGradient id="paint12_linear_401_43083" x1="110.852" y1="324.744" x2="98.1642" y2="331.455" gradientUnits="userSpaceOnUse">
<stop stop-color="#CAACF2"/>
<stop offset="1" stop-color="#BBD0FF"/>
</linearGradient>
<linearGradient id="paint13_linear_401_43083" x1="76.4241" y1="319.275" x2="68.4718" y2="323.48" gradientUnits="userSpaceOnUse">
<stop stop-color="#CAACF2"/>
<stop offset="1" stop-color="#BBD0FF"/>
</linearGradient>
<linearGradient id="paint14_linear_401_43083" x1="77.8682" y1="378.202" x2="71.7812" y2="381.417" gradientUnits="userSpaceOnUse">
<stop stop-color="#CAACF2"/>
<stop offset="1" stop-color="#BBD0FF"/>
</linearGradient>
<linearGradient id="paint15_linear_401_43083" x1="51.7552" y1="351.013" x2="46.8095" y2="353.626" gradientUnits="userSpaceOnUse">
<stop stop-color="#CAACF2"/>
<stop offset="1" stop-color="#BBD0FF"/>
</linearGradient>
<linearGradient id="paint16_linear_401_43083" x1="487.184" y1="145.219" x2="478.37" y2="149.884" gradientUnits="userSpaceOnUse">
<stop stop-color="#CAACF2"/>
<stop offset="1" stop-color="#BBD0FF"/>
</linearGradient>
<linearGradient id="paint17_linear_401_43083" x1="409.065" y1="244.616" x2="400.249" y2="249.278" gradientUnits="userSpaceOnUse">
<stop stop-color="#CAACF2"/>
<stop offset="1" stop-color="#BBD0FF"/>
</linearGradient>
<linearGradient id="paint18_linear_401_43083" x1="365.534" y1="255.014" x2="336.736" y2="270.249" gradientUnits="userSpaceOnUse">
<stop stop-color="#CAACF2"/>
<stop offset="1" stop-color="#BBD0FF"/>
</linearGradient>
<linearGradient id="paint19_linear_401_43083" x1="214.774" y1="315.109" x2="185.226" y2="330.899" gradientUnits="userSpaceOnUse">
<stop stop-color="#CAACF2"/>
<stop offset="1" stop-color="#BBD0FF"/>
</linearGradient>
<linearGradient id="paint20_linear_401_43083" x1="366.04" y1="224.339" x2="357.223" y2="229.001" gradientUnits="userSpaceOnUse">
<stop stop-color="#CAACF2"/>
<stop offset="1" stop-color="#BBD0FF"/>
</linearGradient>
<linearGradient id="paint21_linear_401_43083" x1="496.861" y1="257.351" x2="488.047" y2="262.016" gradientUnits="userSpaceOnUse">
<stop stop-color="#CAACF2"/>
<stop offset="1" stop-color="#BBD0FF"/>
</linearGradient>
<linearGradient id="paint22_linear_401_43083" x1="531.584" y1="82.9515" x2="522.77" y2="87.6168" gradientUnits="userSpaceOnUse">
<stop stop-color="#CAACF2"/>
<stop offset="1" stop-color="#BBD0FF"/>
</linearGradient>
<linearGradient id="paint23_linear_401_43083" x1="554.977" y1="97.3919" x2="546.162" y2="102.057" gradientUnits="userSpaceOnUse">
<stop stop-color="#CAACF2"/>
<stop offset="1" stop-color="#BBD0FF"/>
</linearGradient>
<linearGradient id="paint24_linear_401_43083" x1="560.136" y1="75.2455" x2="552.913" y2="79.0705" gradientUnits="userSpaceOnUse">
<stop stop-color="#CAACF2"/>
<stop offset="1" stop-color="#BBD0FF"/>
</linearGradient>
<linearGradient id="paint25_linear_401_43083" x1="574.181" y1="15.9487" x2="565.367" y2="20.614" gradientUnits="userSpaceOnUse">
<stop stop-color="#CAACF2"/>
<stop offset="1" stop-color="#BBD0FF"/>
</linearGradient>
<linearGradient id="paint26_linear_401_43083" x1="592.053" y1="6.51412" x2="583.239" y2="11.1794" gradientUnits="userSpaceOnUse">
<stop stop-color="#CAACF2"/>
<stop offset="1" stop-color="#BBD0FF"/>
</linearGradient>
<linearGradient id="paint27_linear_401_43083" x1="465.116" y1="172.797" x2="452.843" y2="179.289" gradientUnits="userSpaceOnUse">
<stop stop-color="#CAACF2"/>
<stop offset="1" stop-color="#BBD0FF"/>
</linearGradient>
<linearGradient id="paint28_linear_401_43083" x1="205.175" y1="365.036" x2="196.358" y2="369.697" gradientUnits="userSpaceOnUse">
<stop stop-color="#CAACF2"/>
<stop offset="1" stop-color="#BBD0FF"/>
</linearGradient>
<linearGradient id="paint29_linear_401_43083" x1="173.014" y1="378.878" x2="158.469" y2="386.66" gradientUnits="userSpaceOnUse">
<stop stop-color="#CAACF2"/>
<stop offset="1" stop-color="#BBD0FF"/>
</linearGradient>
<linearGradient id="paint30_linear_401_43083" x1="111.06" y1="452.506" x2="101.88" y2="457.394" gradientUnits="userSpaceOnUse">
<stop stop-color="#CAACF2"/>
<stop offset="1" stop-color="#BBD0FF"/>
</linearGradient>
<linearGradient id="paint31_linear_401_43083" x1="546.705" y1="136.338" x2="537.89" y2="141.003" gradientUnits="userSpaceOnUse">
<stop stop-color="#CAACF2"/>
<stop offset="1" stop-color="#BBD0FF"/>
</linearGradient>
<linearGradient id="paint32_linear_401_43083" x1="512.298" y1="165.884" x2="505.317" y2="169.581" gradientUnits="userSpaceOnUse">
<stop stop-color="#CAACF2"/>
<stop offset="1" stop-color="#BBD0FF"/>
</linearGradient>
<linearGradient id="paint33_linear_401_43083" x1="554.368" y1="30.9426" x2="524.629" y2="46.6599" gradientUnits="userSpaceOnUse">
<stop stop-color="#CAACF2"/>
<stop offset="1" stop-color="#BBD0FF"/>
</linearGradient>
<linearGradient id="paint34_linear_401_43083" x1="527.99" y1="184.794" x2="498.033" y2="200.811" gradientUnits="userSpaceOnUse">
<stop stop-color="#CAACF2"/>
<stop offset="1" stop-color="#BBD0FF"/>
</linearGradient>
<linearGradient id="paint35_linear_401_43083" x1="331.127" y1="316.504" x2="324.847" y2="319.85" gradientUnits="userSpaceOnUse">
<stop stop-color="#CAACF2"/>
<stop offset="1" stop-color="#BBD0FF"/>
</linearGradient>
<linearGradient id="paint36_linear_401_43083" x1="244.391" y1="321.789" x2="239.757" y2="324.237" gradientUnits="userSpaceOnUse">
<stop stop-color="#CAACF2"/>
<stop offset="1" stop-color="#BBD0FF"/>
</linearGradient>
<linearGradient id="paint37_linear_401_43083" x1="415.035" y1="200.152" x2="408.778" y2="203.462" gradientUnits="userSpaceOnUse">
<stop stop-color="#CAACF2"/>
<stop offset="1" stop-color="#BBD0FF"/>
</linearGradient>
<linearGradient id="paint38_linear_401_43083" x1="483.47" y1="201.738" x2="477.192" y2="205.088" gradientUnits="userSpaceOnUse">
<stop stop-color="#CAACF2"/>
<stop offset="1" stop-color="#BBD0FF"/>
</linearGradient>
<linearGradient id="paint39_linear_401_43083" x1="536.547" y1="171.882" x2="530.27" y2="175.232" gradientUnits="userSpaceOnUse">
<stop stop-color="#CAACF2"/>
<stop offset="1" stop-color="#BBD0FF"/>
</linearGradient>
<linearGradient id="paint40_linear_401_43083" x1="501.92" y1="230.002" x2="496.127" y2="233.096" gradientUnits="userSpaceOnUse">
<stop stop-color="#CAACF2"/>
<stop offset="1" stop-color="#BBD0FF"/>
</linearGradient>
<linearGradient id="paint41_linear_401_43083" x1="322.434" y1="362.318" x2="316.176" y2="365.628" gradientUnits="userSpaceOnUse">
<stop stop-color="#CAACF2"/>
<stop offset="1" stop-color="#BBD0FF"/>
</linearGradient>
<linearGradient id="paint42_linear_401_43083" x1="223.138" y1="266.136" x2="216.913" y2="269.424" gradientUnits="userSpaceOnUse">
<stop stop-color="#CAACF2"/>
<stop offset="1" stop-color="#BBD0FF"/>
</linearGradient>
<linearGradient id="paint43_linear_401_43083" x1="466.478" y1="298.909" x2="460.255" y2="302.2" gradientUnits="userSpaceOnUse">
<stop stop-color="#CAACF2"/>
<stop offset="1" stop-color="#BBD0FF"/>
</linearGradient>
<linearGradient id="paint44_linear_401_43083" x1="179.341" y1="349.56" x2="173.118" y2="352.852" gradientUnits="userSpaceOnUse">
<stop stop-color="#CAACF2"/>
<stop offset="1" stop-color="#BBD0FF"/>
</linearGradient>
<linearGradient id="paint45_linear_401_43083" x1="420.09" y1="291.252" x2="413.835" y2="294.566" gradientUnits="userSpaceOnUse">
<stop stop-color="#CAACF2"/>
<stop offset="1" stop-color="#BBD0FF"/>
</linearGradient>
<linearGradient id="paint46_linear_401_43083" x1="281.564" y1="303.848" x2="277.666" y2="305.927" gradientUnits="userSpaceOnUse">
<stop stop-color="#CAACF2"/>
<stop offset="1" stop-color="#BBD0FF"/>
</linearGradient>
<linearGradient id="paint47_linear_401_43083" x1="242.289" y1="366.36" x2="238.362" y2="368.464" gradientUnits="userSpaceOnUse">
<stop stop-color="#CAACF2"/>
<stop offset="1" stop-color="#BBD0FF"/>
</linearGradient>
<linearGradient id="paint48_linear_401_43083" x1="152.794" y1="414.839" x2="148.864" y2="416.94" gradientUnits="userSpaceOnUse">
<stop stop-color="#CAACF2"/>
<stop offset="1" stop-color="#BBD0FF"/>
</linearGradient>
<linearGradient id="paint49_linear_401_43083" x1="122.194" y1="306.097" x2="118.296" y2="308.175" gradientUnits="userSpaceOnUse">
<stop stop-color="#CAACF2"/>
<stop offset="1" stop-color="#BBD0FF"/>
</linearGradient>
<linearGradient id="paint50_linear_401_43083" x1="448.553" y1="206.059" x2="444.655" y2="208.137" gradientUnits="userSpaceOnUse">
<stop stop-color="#CAACF2"/>
<stop offset="1" stop-color="#BBD0FF"/>
</linearGradient>
<linearGradient id="paint51_linear_401_43083" x1="411.258" y1="329.961" x2="407.328" y2="332.061" gradientUnits="userSpaceOnUse">
<stop stop-color="#CAACF2"/>
<stop offset="1" stop-color="#BBD0FF"/>
</linearGradient>
<linearGradient id="paint52_linear_401_43083" x1="582.557" y1="54.1793" x2="578.659" y2="56.258" gradientUnits="userSpaceOnUse">
<stop stop-color="#CAACF2"/>
<stop offset="1" stop-color="#BBD0FF"/>
</linearGradient>
<linearGradient id="paint53_linear_401_43083" x1="148.705" y1="285.538" x2="131.281" y2="294.825" gradientUnits="userSpaceOnUse">
<stop stop-color="#CAACF2"/>
<stop offset="1" stop-color="#BBD0FF"/>
</linearGradient>
<linearGradient id="paint54_linear_401_43083" x1="133.595" y1="427.759" x2="121.576" y2="434.141" gradientUnits="userSpaceOnUse">
<stop stop-color="#CAACF2"/>
<stop offset="1" stop-color="#BBD0FF"/>
</linearGradient>
<linearGradient id="paint55_linear_401_43083" x1="76.3687" y1="334.976" x2="58.9448" y2="344.262" gradientUnits="userSpaceOnUse">
<stop stop-color="#CAACF2"/>
<stop offset="1" stop-color="#BBD0FF"/>
</linearGradient>
<linearGradient id="paint56_linear_401_43083" x1="311.254" y1="281.913" x2="293.862" y2="291.177" gradientUnits="userSpaceOnUse">
<stop stop-color="#CAACF2"/>
<stop offset="1" stop-color="#BBD0FF"/>
</linearGradient>
<linearGradient id="paint57_linear_401_43083" x1="457.218" y1="268.721" x2="439.797" y2="278.012" gradientUnits="userSpaceOnUse">
<stop stop-color="#CAACF2"/>
<stop offset="1" stop-color="#BBD0FF"/>
</linearGradient>
<linearGradient id="paint58_linear_401_43083" x1="435.77" y1="313.947" x2="421.899" y2="321.269" gradientUnits="userSpaceOnUse">
<stop stop-color="#CAACF2"/>
<stop offset="1" stop-color="#BBD0FF"/>
</linearGradient>
<linearGradient id="paint59_linear_401_43083" x1="354.677" y1="345.579" x2="340.804" y2="352.898" gradientUnits="userSpaceOnUse">
<stop stop-color="#CAACF2"/>
<stop offset="1" stop-color="#BBD0FF"/>
</linearGradient>
<linearGradient id="paint60_linear_401_43083" x1="560.379" y1="29.3522" x2="556.481" y2="31.4309" gradientUnits="userSpaceOnUse">
<stop stop-color="#CAACF2"/>
<stop offset="1" stop-color="#BBD0FF"/>
</linearGradient>
<linearGradient id="paint61_linear_401_43083" x1="579.127" y1="2.10015" x2="573.93" y2="4.82665" gradientUnits="userSpaceOnUse">
<stop stop-color="#CAACF2"/>
<stop offset="1" stop-color="#BBD0FF"/>
</linearGradient>
<linearGradient id="paint62_linear_401_43083" x1="586.503" y1="39.9418" x2="581.274" y2="42.69" gradientUnits="userSpaceOnUse">
<stop stop-color="#CAACF2"/>
<stop offset="1" stop-color="#BBD0FF"/>
</linearGradient>
<linearGradient id="paint63_linear_401_43083" x1="540.972" y1="77.9737" x2="535.775" y2="80.7002" gradientUnits="userSpaceOnUse">
<stop stop-color="#CAACF2"/>
<stop offset="1" stop-color="#BBD0FF"/>
</linearGradient>
<linearGradient id="paint64_linear_401_43083" x1="536.729" y1="118.751" x2="531.534" y2="121.481" gradientUnits="userSpaceOnUse">
<stop stop-color="#CAACF2"/>
<stop offset="1" stop-color="#BBD0FF"/>
</linearGradient>
<linearGradient id="paint65_linear_401_43083" x1="511.675" y1="99.1593" x2="506.478" y2="101.886" gradientUnits="userSpaceOnUse">
<stop stop-color="#CAACF2"/>
<stop offset="1" stop-color="#BBD0FF"/>
</linearGradient>
<linearGradient id="paint66_linear_401_43083" x1="510.571" y1="142.597" x2="508.157" y2="143.887" gradientUnits="userSpaceOnUse">
<stop stop-color="#CAACF2"/>
<stop offset="1" stop-color="#BBD0FF"/>
</linearGradient>
<linearGradient id="paint67_linear_401_43083" x1="532.461" y1="106.909" x2="530.045" y2="108.194" gradientUnits="userSpaceOnUse">
<stop stop-color="#CAACF2"/>
<stop offset="1" stop-color="#BBD0FF"/>
</linearGradient>
<linearGradient id="paint68_linear_401_43083" x1="499.61" y1="202.726" x2="497.196" y2="204.016" gradientUnits="userSpaceOnUse">
<stop stop-color="#CAACF2"/>
<stop offset="1" stop-color="#BBD0FF"/>
</linearGradient>
<linearGradient id="paint69_linear_401_43083" x1="479.365" y1="253.103" x2="476.951" y2="254.393" gradientUnits="userSpaceOnUse">
<stop stop-color="#CAACF2"/>
<stop offset="1" stop-color="#BBD0FF"/>
</linearGradient>
<linearGradient id="paint70_linear_401_43083" x1="443.832" y1="190.274" x2="441.419" y2="191.563" gradientUnits="userSpaceOnUse">
<stop stop-color="#CAACF2"/>
<stop offset="1" stop-color="#BBD0FF"/>
</linearGradient>
<linearGradient id="paint71_linear_401_43083" x1="486.301" y1="184.091" x2="483.888" y2="185.381" gradientUnits="userSpaceOnUse">
<stop stop-color="#CAACF2"/>
<stop offset="1" stop-color="#BBD0FF"/>
</linearGradient>
<linearGradient id="paint72_linear_401_43083" x1="370.673" y1="257.568" x2="368.257" y2="258.854" gradientUnits="userSpaceOnUse">
<stop stop-color="#CAACF2"/>
<stop offset="1" stop-color="#BBD0FF"/>
</linearGradient>
<linearGradient id="paint73_linear_401_43083" x1="398.07" y1="311.125" x2="395.625" y2="312.437" gradientUnits="userSpaceOnUse">
<stop stop-color="#CAACF2"/>
<stop offset="1" stop-color="#BBD0FF"/>
</linearGradient>
<linearGradient id="paint74_linear_401_43083" x1="402.712" y1="275.994" x2="399.058" y2="277.949" gradientUnits="userSpaceOnUse">
<stop stop-color="#CAACF2"/>
<stop offset="1" stop-color="#BBD0FF"/>
</linearGradient>
<linearGradient id="paint75_linear_401_43083" x1="295.974" y1="317.886" x2="293.558" y2="319.172" gradientUnits="userSpaceOnUse">
<stop stop-color="#CAACF2"/>
<stop offset="1" stop-color="#BBD0FF"/>
</linearGradient>
<linearGradient id="paint76_linear_401_43083" x1="352.752" y1="308.934" x2="349.509" y2="310.662" gradientUnits="userSpaceOnUse">
<stop stop-color="#CAACF2"/>
<stop offset="1" stop-color="#BBD0FF"/>
</linearGradient>
<linearGradient id="paint77_linear_401_43083" x1="256.03" y1="308.953" x2="253.617" y2="310.243" gradientUnits="userSpaceOnUse">
<stop stop-color="#CAACF2"/>
<stop offset="1" stop-color="#BBD0FF"/>
</linearGradient>
<linearGradient id="paint78_linear_401_43083" x1="135.964" y1="347.352" x2="133.55" y2="348.641" gradientUnits="userSpaceOnUse">
<stop stop-color="#CAACF2"/>
<stop offset="1" stop-color="#BBD0FF"/>
</linearGradient>
<linearGradient id="paint79_linear_401_43083" x1="177.256" y1="330.657" x2="174.842" y2="331.947" gradientUnits="userSpaceOnUse">
<stop stop-color="#CAACF2"/>
<stop offset="1" stop-color="#BBD0FF"/>
</linearGradient>
<linearGradient id="paint80_linear_401_43083" x1="159.228" y1="356.34" x2="156.812" y2="357.626" gradientUnits="userSpaceOnUse">
<stop stop-color="#CAACF2"/>
<stop offset="1" stop-color="#BBD0FF"/>
</linearGradient>
<linearGradient id="paint81_linear_401_43083" x1="293.336" y1="259.007" x2="287.111" y2="262.295" gradientUnits="userSpaceOnUse">
<stop stop-color="#CAACF2"/>
<stop offset="1" stop-color="#BBD0FF"/>
</linearGradient>
<linearGradient id="paint82_linear_401_43083" x1="382.588" y1="291.279" x2="376.333" y2="294.593" gradientUnits="userSpaceOnUse">
<stop stop-color="#CAACF2"/>
<stop offset="1" stop-color="#BBD0FF"/>
</linearGradient>
<linearGradient id="paint83_linear_401_43083" x1="315.317" y1="335.29" x2="309.094" y2="338.582" gradientUnits="userSpaceOnUse">
<stop stop-color="#CAACF2"/>
<stop offset="1" stop-color="#BBD0FF"/>
</linearGradient>
<linearGradient id="paint84_linear_401_43083" x1="191.537" y1="305.703" x2="185.279" y2="309.013" gradientUnits="userSpaceOnUse">
<stop stop-color="#CAACF2"/>
<stop offset="1" stop-color="#BBD0FF"/>
</linearGradient>
<linearGradient id="paint85_linear_401_43083" x1="170.145" y1="271.442" x2="163.89" y2="274.755" gradientUnits="userSpaceOnUse">
<stop stop-color="#CAACF2"/>
<stop offset="1" stop-color="#BBD0FF"/>
</linearGradient>
<linearGradient id="paint86_linear_401_43083" x1="61.7877" y1="314.663" x2="59.3395" y2="315.971" gradientUnits="userSpaceOnUse">
<stop stop-color="#CAACF2"/>
<stop offset="1" stop-color="#BBD0FF"/>
</linearGradient>
<linearGradient id="paint87_linear_401_43083" x1="97.3706" y1="316.281" x2="94.9545" y2="317.566" gradientUnits="userSpaceOnUse">
<stop stop-color="#CAACF2"/>
<stop offset="1" stop-color="#BBD0FF"/>
</linearGradient>
<linearGradient id="paint88_linear_401_43083" x1="91.722" y1="362.031" x2="89.3085" y2="363.32" gradientUnits="userSpaceOnUse">
<stop stop-color="#CAACF2"/>
<stop offset="1" stop-color="#BBD0FF"/>
</linearGradient>
<linearGradient id="paint89_linear_401_43083" x1="84.3294" y1="399.322" x2="81.9159" y2="400.612" gradientUnits="userSpaceOnUse">
<stop stop-color="#CAACF2"/>
<stop offset="1" stop-color="#BBD0FF"/>
</linearGradient>
<linearGradient id="paint90_linear_401_43083" x1="81.014" y1="296.359" x2="74.7886" y2="299.647" gradientUnits="userSpaceOnUse">
<stop stop-color="#CAACF2"/>
<stop offset="1" stop-color="#BBD0FF"/>
</linearGradient>
<linearGradient id="paint91_linear_401_43083" x1="107.127" y1="286.011" x2="104.681" y2="287.323" gradientUnits="userSpaceOnUse">
<stop stop-color="#CAACF2"/>
<stop offset="1" stop-color="#BBD0FF"/>
</linearGradient>
<linearGradient id="paint92_linear_401_43083" x1="97.2151" y1="300.603" x2="94.799" y2="301.889" gradientUnits="userSpaceOnUse">
<stop stop-color="#CAACF2"/>
<stop offset="1" stop-color="#BBD0FF"/>
</linearGradient>
<linearGradient id="paint93_linear_401_43083" x1="135.469" y1="274.814" x2="129.216" y2="278.131" gradientUnits="userSpaceOnUse">
<stop stop-color="#CAACF2"/>
<stop offset="1" stop-color="#BBD0FF"/>
</linearGradient>
<linearGradient id="paint94_linear_401_43083" x1="344.351" y1="328.721" x2="341.938" y2="330.01" gradientUnits="userSpaceOnUse">
<stop stop-color="#CAACF2"/>
<stop offset="1" stop-color="#BBD0FF"/>
</linearGradient>
<linearGradient id="paint95_linear_401_43083" x1="51.444" y1="327.111" x2="45.221" y2="330.402" gradientUnits="userSpaceOnUse">
<stop stop-color="#CAACF2"/>
<stop offset="1" stop-color="#BBD0FF"/>
</linearGradient>
<linearGradient id="paint96_linear_401_43083" x1="63.5989" y1="380.754" x2="61.1854" y2="382.044" gradientUnits="userSpaceOnUse">
<stop stop-color="#CAACF2"/>
<stop offset="1" stop-color="#BBD0FF"/>
</linearGradient>
<linearGradient id="paint97_linear_401_43083" x1="527.753" y1="158.222" x2="525.337" y2="159.508" gradientUnits="userSpaceOnUse">
<stop stop-color="#CAACF2"/>
<stop offset="1" stop-color="#BBD0FF"/>
</linearGradient>
<linearGradient id="paint98_linear_401_43083" x1="184.122" y1="292.039" x2="181.708" y2="293.328" gradientUnits="userSpaceOnUse">
<stop stop-color="#CAACF2"/>
<stop offset="1" stop-color="#BBD0FF"/>
</linearGradient>
<linearGradient id="paint99_linear_401_43083" x1="125.689" y1="413.951" x2="123.273" y2="415.237" gradientUnits="userSpaceOnUse">
<stop stop-color="#CAACF2"/>
<stop offset="1" stop-color="#BBD0FF"/>
</linearGradient>
<linearGradient id="paint100_linear_401_43083" x1="92.3289" y1="449.763" x2="89.8808" y2="451.071" gradientUnits="userSpaceOnUse">
<stop stop-color="#CAACF2"/>
<stop offset="1" stop-color="#BBD0FF"/>
</linearGradient>
<linearGradient id="paint101_linear_401_43083" x1="242.337" y1="339.173" x2="239.921" y2="340.459" gradientUnits="userSpaceOnUse">
<stop stop-color="#CAACF2"/>
<stop offset="1" stop-color="#BBD0FF"/>
</linearGradient>
<linearGradient id="paint102_linear_401_43083" x1="435.006" y1="264.297" x2="432.593" y2="265.586" gradientUnits="userSpaceOnUse">
<stop stop-color="#CAACF2"/>
<stop offset="1" stop-color="#BBD0FF"/>
</linearGradient>
</defs>
</svg>
